<?xml version="1.0" encoding="utf-8"?>
<!-- Generator: Adobe Illustrator 13.0.0, SVG Export Plug-In  -->
<!DOCTYPE svg PUBLIC "-//W3C//DTD SVG 1.1//EN" "http://www.w3.org/Graphics/SVG/1.1/DTD/svg11.dtd" [
	<!ENTITY ns_flows "http://ns.adobe.com/Flows/1.0/">
]>
<svg version="1.1"
	 xmlns="http://www.w3.org/2000/svg" xmlns:xlink="http://www.w3.org/1999/xlink" xmlns:a="http://ns.adobe.com/AdobeSVGViewerExtensions/3.0/"
	 x="0px" y="0px" width="673px" height="597px" viewBox="-0.165 -0.218 673 597" enable-background="new -0.165 -0.218 673 597"
	 xml:space="preserve">
<defs>
</defs>
<path fill="#FFFFFF" stroke="#000000" stroke-width="0.1764" stroke-linecap="round" stroke-linejoin="round" d="M361.833,15.571
	l256.004,443.413c5.531,9.58,5.531,21.384,0,30.964s-15.753,15.481-26.815,15.481H79.013c-11.063,0-21.285-5.901-26.816-15.481
	c-5.531-9.579-5.531-21.384,0-30.964L308.202,15.57c5.531-9.58,15.754-15.481,26.815-15.481
	C346.08,0.088,356.302,5.991,361.833,15.571z"/>
<path fill="#F91A0E" stroke="#FF0000" stroke-width="0.1764" stroke-linecap="round" stroke-linejoin="round" d="M318.973,21.685
	L62.877,465.255c-3.309,5.731-3.309,12.794,0.001,18.526c3.309,5.731,9.425,9.263,16.043,9.263l512.191-0.001
	c6.619,0,12.734-3.53,16.044-9.263c3.31-5.731,3.31-12.794,0-18.525L351.061,21.685c-3.309-5.731-9.425-9.263-16.043-9.263
	C328.399,12.421,322.283,15.953,318.973,21.685z"/>
<polygon fill="#FFFFFF" stroke="#FF0000" stroke-width="0.1764" stroke-linecap="round" stroke-linejoin="round" points="
	558.844,455.888 111.19,455.888 335.017,68.208 "/>
<line fill="none" stroke="#000000" stroke-width="0.1764" stroke-linecap="round" stroke-linejoin="round" x1="128.538" y1="326.7" x2="11.934" y2="528.736"/>
<line fill="none" stroke="#000000" stroke-width="0.1764" stroke-linecap="round" stroke-linejoin="round" x1="184.654" y1="505.227" x2="0.088" y2="505.552"/>
<line fill="none" stroke="#000000" stroke-width="0.1764" stroke-linecap="round" stroke-linejoin="round" x1="443.619" y1="506.334" x2="672.463" y2="506.366"/>
<line fill="none" stroke="#000000" stroke-width="0.1764" stroke-linecap="round" stroke-linejoin="round" x1="567.729" y1="371.17" x2="658.583" y2="527.789"/>
<line fill="none" stroke="#000000" stroke-width="0.3" stroke-linecap="round" stroke-linejoin="round" x1="646.716" y1="595.782" x2="646.716" y2="493.504"/>
<line fill="none" stroke="#000000" stroke-width="0.3" stroke-linecap="round" stroke-linejoin="round" x1="25.716" y1="592.782" x2="25.716" y2="482.504"/>
<line fill="none" stroke="#000000" x1="654.716" y1="579.504" x2="24.716" y2="579.504"/>
<polygon points="65.835,572.878 65.718,579.853 65.601,586.828 45.718,583.005 25.835,579.181 45.835,576.03 "/>
<polygon points="605.835,584.828 605.953,577.853 606.07,570.878 625.953,574.701 645.835,578.525 625.835,581.676 "/>
<path d="M284.71,568.782h-4.25v-26.883c-1.008,0.969-2.33,1.938-3.967,2.906s-3.105,1.695-4.408,2.18v-4.078
	c2.347-1.109,4.398-2.453,6.155-4.031c1.756-1.578,3-3.109,3.73-4.594h2.739V568.782z"/>
<path d="M295.531,551.825c0-4.06,0.417-7.332,1.252-9.817c0.834-2.485,2.074-4.395,3.721-5.727s3.718-1.999,6.215-1.999
	c1.841,0,3.461,0.371,4.86,1.112c1.398,0.742,2.546,1.812,3.44,3.209c0.895,1.398,1.599,3.101,2.114,5.106
	c0.515,2.006,0.772,4.711,0.772,8.115c0,4.029-0.414,7.286-1.24,9.771c-0.827,2.485-2.063,4.398-3.71,5.738s-3.726,2.01-6.237,2.01
	c-3.309,0-5.906-1.176-7.794-3.529C296.662,562.937,295.531,558.274,295.531,551.825z M299.843,551.813
	c0,5.649,0.66,9.4,1.982,11.253s2.953,2.778,4.893,2.778s3.569-0.93,4.892-2.79s1.983-5.607,1.983-11.241
	c0-5.644-0.659-9.393-1.976-11.248s-2.966-2.783-4.946-2.783c-1.939,0-3.493,0.818-4.661,2.455
	C300.565,542.327,299.843,546.185,299.843,551.813z"/>
<path d="M322.226,551.825c0-4.06,0.417-7.332,1.252-9.817c0.834-2.485,2.074-4.395,3.721-5.727s3.718-1.999,6.215-1.999
	c1.841,0,3.461,0.371,4.86,1.112c1.398,0.742,2.546,1.812,3.44,3.209c0.895,1.398,1.599,3.101,2.114,5.106
	c0.515,2.006,0.772,4.711,0.772,8.115c0,4.029-0.414,7.286-1.24,9.771c-0.827,2.485-2.063,4.398-3.71,5.738s-3.726,2.01-6.237,2.01
	c-3.309,0-5.906-1.176-7.794-3.529C323.357,562.937,322.226,558.274,322.226,551.825z M326.539,551.813
	c0,5.649,0.66,9.4,1.982,11.253s2.953,2.778,4.893,2.778s3.569-0.93,4.892-2.79s1.983-5.607,1.983-11.241
	c0-5.644-0.659-9.393-1.976-11.248s-2.966-2.783-4.946-2.783c-1.939,0-3.493,0.818-4.661,2.455
	C327.26,542.327,326.539,546.185,326.539,551.813z"/>
<path d="M348.921,551.825c0-4.06,0.417-7.332,1.252-9.817c0.834-2.485,2.074-4.395,3.721-5.727s3.718-1.999,6.215-1.999
	c1.841,0,3.461,0.371,4.86,1.112c1.398,0.742,2.546,1.812,3.44,3.209c0.895,1.398,1.599,3.101,2.114,5.106
	c0.515,2.006,0.772,4.711,0.772,8.115c0,4.029-0.414,7.286-1.24,9.771c-0.827,2.485-2.063,4.398-3.71,5.738s-3.726,2.01-6.237,2.01
	c-3.309,0-5.906-1.176-7.794-3.529C350.052,562.937,348.921,558.274,348.921,551.825z M353.234,551.813
	c0,5.649,0.66,9.4,1.982,11.253s2.953,2.778,4.893,2.778s3.569-0.93,4.892-2.79s1.983-5.607,1.983-11.241
	c0-5.644-0.659-9.393-1.976-11.248s-2.966-2.783-4.946-2.783c-1.939,0-3.493,0.818-4.661,2.455
	C353.956,542.327,353.234,546.185,353.234,551.813z"/>
</svg>
